 <svg
                  xmlns="http://www.w3.org/2000/svg"
                  width="15"
                  height="15"
                  viewBox="0 0 18.066 17.313"
                >
                  <g
                    id="Icon_feather-shopping-cart"
                    data-name="Icon feather-shopping-cart"
                    transform="translate(-0.75 -0.75)"
                  >
                    <path
                      id="Path_4"
                      data-name="Path 4"
                      d="M13.506,30.753A.753.753,0,1,1,12.753,30,.753.753,0,0,1,13.506,30.753Z"
                      transform="translate(-5.229 -14.193)"
                      fill="none"
                      stroke="#FFF"
                      stroke-linecap="round"
                      stroke-linejoin="round"
                      stroke-width="1.5"
                    />
                    <path
                      id="Path_5"
                      data-name="Path 5"
                      d="M30.006,30.753A.753.753,0,1,1,29.253,30,.753.753,0,0,1,30.006,30.753Z"
                      transform="translate(-13.446 -14.193)"
                      fill="none"
                      stroke="#FFF"
                      stroke-linecap="round"
                      stroke-linejoin="round"
                      stroke-width="1.5"
                    />
                    <path
                      id="Path_6"
                      data-name="Path 6"
                      d="M1.5,1.5H4.512L6.53,11.583A1.506,1.506,0,0,0,8.036,12.8h7.319a1.506,1.506,0,0,0,1.506-1.212l1.2-6.318H5.265"
                      fill="none"
                      stroke="#FFF"
                      stroke-linecap="round"
                      stroke-linejoin="round"
                      stroke-width="1.5"
                    />
                  </g>
                </svg>